# Blender v2.80 (sub 41) OBJ File: 'arrow.blend'
# www.blender.org
o Cube_Cube.001
v -0.600000 -1.574445 0.600000
v -0.600000 0.600000 0.600000
v -0.600000 -1.574445 -0.600000
v -0.600000 0.600000 -0.600000
v -1.642300 -0.600000 -0.600000
v -1.642300 -0.600000 0.600000
v -1.642300 0.600000 0.600000
v -1.642300 0.600000 -0.600000
v -1.466678 4.420310 0.600000
v -1.466678 4.420310 -0.600000
v -2.877537 0.600000 -0.600000
v -2.877537 0.600000 0.600000
v -2.877537 0.600000 0.600000
v -2.877537 0.600000 -0.600000
v 0.600000 -1.574445 0.600000
v 0.600000 0.600000 0.600000
v 0.600000 -1.574445 -0.600000
v 0.600000 0.600000 -0.600000
v 0.000000 -2.086835 -0.600000
v 0.000000 0.600000 -0.600000
v 0.000000 -2.086835 0.600000
v 0.000000 0.600000 0.600000
v 1.642300 -0.600000 -0.600000
v 1.642300 -0.600000 0.600000
v 1.642300 0.600000 0.600000
v 1.642300 0.600000 -0.600000
v 1.466678 4.420310 0.600000
v 1.466678 4.420310 -0.600000
v 0.000000 4.420310 0.600000
v 0.000000 4.420310 -0.600000
v 2.877537 0.600000 -0.600000
v 2.877537 0.600000 0.600000
v 2.877537 0.600000 0.600000
v 2.877537 0.600000 -0.600000
v -0.600000 -1.574445 -0.600000
v -0.600000 0.600000 -0.600000
v -0.600000 -1.574445 0.600000
v -0.600000 0.600000 0.600000
v -1.642300 -0.600000 0.600000
v -1.642300 -0.600000 -0.600000
v -1.642300 0.600000 -0.600000
v -1.642300 0.600000 0.600000
v -1.466678 4.420310 -0.600000
v -1.466678 4.420310 0.600000
v -2.877537 0.600000 0.600000
v -2.877537 0.600000 -0.600000
v -2.877537 0.600000 -0.600000
v -2.877537 0.600000 0.600000
v 0.600000 -1.574445 -0.600000
v 0.600000 0.600000 -0.600000
v 0.600000 -1.574445 0.600000
v 0.600000 0.600000 0.600000
v 0.000000 -2.086835 0.600000
v 0.000000 0.600000 0.600000
v 0.000000 -2.086835 -0.600000
v 0.000000 0.600000 -0.600000
v 1.642300 -0.600000 0.600000
v 1.642300 -0.600000 -0.600000
v 1.642300 0.600000 -0.600000
v 1.642300 0.600000 0.600000
v 1.466678 4.420310 -0.600000
v 1.466678 4.420310 0.600000
v 0.000000 4.420310 -0.600000
v 0.000000 4.420310 0.600000
v 2.877537 0.600000 0.600000
v 2.877537 0.600000 -0.600000
v 2.877537 0.600000 -0.600000
v 2.877537 0.600000 0.600000
vt 0.125000 0.750000
vt 0.125000 0.500000
vt 0.125000 0.500000
vt 0.625000 0.875000
vt 0.375000 1.000000
vt 0.375000 0.875000
vt 0.625000 1.000000
vt 0.625000 0.875000
vt 0.625000 1.000000
vt 0.250000 0.500000
vt 0.375000 0.250000
vt 0.625000 0.375000
vt 0.375000 0.375000
vt 0.875000 0.500000
vt 0.875000 0.750000
vt 0.875000 0.750000
vt 0.625000 0.250000
vt 0.375000 0.250000
vt 0.625000 0.250000
vt 0.375000 1.000000
vt 0.875000 0.500000
vt 0.875000 0.750000
vt 0.875000 0.500000
vt 0.750000 0.750000
vt 0.750000 0.500000
vt 0.625000 0.375000
vt 0.375000 0.000000
vt 0.625000 0.250000
vt 0.375000 0.250000
vt 0.125000 0.750000
vt 0.125000 0.500000
vt 0.625000 1.000000
vt 0.375000 1.000000
vt 0.125000 0.500000
vt 0.125000 0.750000
vt 0.125000 0.500000
vt 0.375000 1.000000
vt 0.625000 1.000000
vt 0.375000 0.250000
vt 0.625000 0.250000
vt 0.875000 0.750000
vt 0.875000 0.500000
vt 0.875000 0.750000
vt 0.375000 0.250000
vt 0.375000 1.000000
vt 0.875000 0.500000
vt 0.875000 0.750000
vt 0.875000 0.500000
vt 0.375000 0.000000
vt 0.625000 0.250000
vt 0.625000 0.000000
vt 0.125000 0.500000
vt 0.125000 0.750000
vt 0.625000 0.250000
vt 0.375000 0.250000
vt 0.625000 1.000000
vt 0.625000 1.000000
vt 0.125000 0.500000
vt 0.125000 0.750000
vt 0.125000 0.500000
vt 0.375000 1.000000
vt 0.625000 0.875000
vt 0.375000 0.875000
vt 0.625000 1.000000
vt 0.625000 0.875000
vt 0.250000 0.500000
vt 0.375000 0.250000
vt 0.625000 0.375000
vt 0.625000 0.250000
vt 0.875000 0.750000
vt 0.875000 0.500000
vt 0.875000 0.750000
vt 0.375000 0.250000
vt 0.375000 1.000000
vt 0.875000 0.500000
vt 0.875000 0.750000
vt 0.750000 0.750000
vt 0.875000 0.500000
vt 0.750000 0.500000
vt 0.625000 0.375000
vt 0.375000 0.000000
vt 0.625000 0.250000
vt 0.625000 0.000000
vt 0.125000 0.500000
vt 0.125000 0.750000
vt 0.625000 0.250000
vt 0.375000 0.250000
vt 0.625000 1.000000
vt 0.625000 1.000000
vt 0.125000 0.750000
vt 0.125000 0.500000
vt 0.125000 0.500000
vt 0.375000 1.000000
vt 0.625000 1.000000
vt 0.625000 1.000000
vt 0.375000 0.250000
vt 0.375000 0.375000
vt 0.875000 0.500000
vt 0.875000 0.750000
vt 0.875000 0.750000
vt 0.625000 0.250000
vt 0.375000 0.250000
vt 0.625000 0.250000
vt 0.375000 1.000000
vt 0.875000 0.500000
vt 0.875000 0.750000
vt 0.875000 0.500000
vt 0.375000 0.000000
vt 0.625000 0.250000
vt 0.375000 0.250000
vt 0.125000 0.750000
vt 0.125000 0.500000
vt 0.625000 1.000000
vt 0.375000 1.000000
vt 0.250000 0.750000
vt 0.875000 0.500000
vt 0.625000 1.000000
vt 0.875000 0.750000
vt 0.625000 0.250000
vt 0.625000 0.000000
vt 0.125000 0.750000
vt 0.625000 1.000000
vt 0.875000 0.500000
vt 0.875000 0.750000
vt 0.625000 0.250000
vt 0.125000 0.750000
vt 0.375000 1.000000
vt 0.625000 1.000000
vt 0.250000 0.750000
vt 0.875000 0.500000
vt 0.875000 0.750000
vt 0.625000 0.250000
vt 0.125000 0.750000
vt 0.375000 1.000000
vt 0.875000 0.500000
vt 0.625000 1.000000
vt 0.875000 0.750000
vt 0.625000 0.250000
vt 0.625000 0.000000
vt 0.125000 0.750000
vn -0.6829 -0.7305 0.0000
vn 0.0000 0.0000 1.0000
vn -0.6494 -0.7604 0.0000
vn 0.0000 0.0000 -1.0000
vn 0.0000 1.0000 0.0000
vn -0.9752 -0.2212 0.0000
vn -0.6968 -0.7173 0.0000
vn 0.6829 -0.7305 0.0000
vn 0.6494 -0.7604 0.0000
vn 0.9752 -0.2212 0.0000
vn 0.6968 -0.7173 0.0000
s off
f 1/1/1 5/2/1 3/3/1
f 22/4/2 1/5/2 21/6/2
f 2/7/2 29/8/2 9/9/2
f 19/10/3 1/1/3 3/3/3
f 3/11/4 20/12/4 19/13/4
f 8/14/5 13/15/5 7/16/5
f 4/17/4 5/18/4 8/19/4
f 2/7/2 6/20/2 1/5/2
f 4/21/5 7/16/5 2/22/5
f 10/23/5 29/24/5 30/25/5
f 4/17/4 30/26/4 20/12/4
f 2/22/6 10/23/6 4/21/6
f 12/27/2 14/28/2 11/29/2
f 6/30/7 11/31/7 5/2/7
f 8/19/2 11/29/2 14/28/2
f 6/20/2 13/32/2 12/33/2
f 23/34/8 15/35/8 17/36/8
f 15/37/2 22/4/2 21/6/2
f 16/38/2 29/8/2 22/4/2
f 15/35/9 19/10/9 17/36/9
f 17/39/4 20/12/4 18/40/4
f 33/41/5 26/42/5 25/43/5
f 18/40/4 23/44/4 17/39/4
f 24/45/2 16/38/2 15/37/2
f 25/43/5 18/46/5 16/47/5
f 29/24/5 28/48/5 30/25/5
f 30/26/4 18/40/4 20/12/4
f 28/48/10 16/47/10 18/46/10
f 32/49/2 34/50/2 33/51/2
f 31/52/11 24/53/11 23/34/11
f 26/54/4 31/55/4 23/44/4
f 24/45/2 33/56/2 25/57/2
f 39/58/1 35/59/1 37/60/1
f 35/61/4 56/62/4 55/63/4
f 36/64/4 63/65/4 56/62/4
f 35/59/3 53/66/3 37/60/3
f 37/67/2 54/68/2 38/69/2
f 47/70/5 42/71/5 41/72/5
f 38/69/2 39/73/2 37/67/2
f 40/74/4 36/64/4 35/61/4
f 41/72/5 38/75/5 36/76/5
f 63/77/5 44/78/5 64/79/5
f 64/80/2 38/69/2 54/68/2
f 44/78/6 36/76/6 38/75/6
f 46/81/2 48/82/2 47/83/2
f 45/84/7 40/85/7 39/58/7
f 42/86/2 45/87/2 39/73/2
f 40/74/4 47/88/4 41/89/4
f 49/90/8 57/91/8 51/92/8
f 56/62/4 49/93/4 55/63/4
f 50/94/4 63/65/4 61/95/4
f 53/66/9 49/90/9 51/92/9
f 51/96/2 54/68/2 53/97/2
f 60/98/5 67/99/5 59/100/5
f 52/101/2 57/102/2 60/103/2
f 50/94/4 58/104/4 49/93/4
f 52/105/5 59/100/5 50/106/5
f 62/107/5 63/77/5 64/79/5
f 52/101/2 64/80/2 54/68/2
f 50/106/10 62/107/10 52/105/10
f 66/108/2 68/109/2 65/110/2
f 58/111/11 65/112/11 57/91/11
f 60/103/2 65/110/2 68/109/2
f 58/104/2 67/113/2 66/114/2
f 1/1/1 6/30/1 5/2/1
f 22/4/2 2/7/2 1/5/2
f 2/7/2 22/4/2 29/8/2
f 19/10/3 21/115/3 1/1/3
f 3/11/4 4/17/4 20/12/4
f 8/14/5 14/116/5 13/15/5
f 4/17/4 3/11/4 5/18/4
f 2/7/2 7/117/2 6/20/2
f 4/21/5 8/14/5 7/16/5
f 10/23/5 9/118/5 29/24/5
f 4/17/4 10/119/4 30/26/4
f 2/22/6 9/118/6 10/23/6
f 12/27/2 13/120/2 14/28/2
f 6/30/7 12/121/7 11/31/7
f 8/19/4 5/18/4 11/29/4
f 6/20/2 7/117/2 13/32/2
f 23/34/8 24/53/8 15/35/8
f 15/37/2 16/38/2 22/4/2
f 16/38/2 27/122/2 29/8/2
f 15/35/9 21/115/9 19/10/9
f 17/39/4 19/13/4 20/12/4
f 33/41/5 34/123/5 26/42/5
f 18/40/4 26/54/4 23/44/4
f 24/45/2 25/57/2 16/38/2
f 25/43/5 26/42/5 18/46/5
f 29/24/5 27/124/5 28/48/5
f 30/26/4 28/125/4 18/40/4
f 28/48/10 27/124/10 16/47/10
f 32/49/2 31/55/2 34/50/2
f 31/52/11 32/126/11 24/53/11
f 26/54/2 34/50/2 31/55/2
f 24/45/2 32/127/2 33/56/2
f 39/58/1 40/85/1 35/59/1
f 35/61/4 36/64/4 56/62/4
f 36/64/4 43/128/4 63/65/4
f 35/59/3 55/129/3 53/66/3
f 37/67/2 53/97/2 54/68/2
f 47/70/5 48/130/5 42/71/5
f 38/69/2 42/86/2 39/73/2
f 40/74/4 41/89/4 36/64/4
f 41/72/5 42/71/5 38/75/5
f 63/77/5 43/131/5 44/78/5
f 64/80/2 44/132/2 38/69/2
f 44/78/6 43/131/6 36/76/6
f 46/81/2 45/87/2 48/82/2
f 45/84/7 46/133/7 40/85/7
f 42/86/2 48/82/2 45/87/2
f 40/74/2 46/134/2 47/88/2
f 49/90/8 58/111/8 57/91/8
f 56/62/4 50/94/4 49/93/4
f 50/94/4 56/62/4 63/65/4
f 53/66/9 55/129/9 49/90/9
f 51/96/2 52/101/2 54/68/2
f 60/98/5 68/135/5 67/99/5
f 52/101/2 51/96/2 57/102/2
f 50/94/4 59/136/4 58/104/4
f 52/105/5 60/98/5 59/100/5
f 62/107/5 61/137/5 63/77/5
f 52/101/2 62/138/2 64/80/2
f 50/106/10 61/137/10 62/107/10
f 66/108/2 67/139/2 68/109/2
f 58/111/11 66/140/11 65/112/11
f 60/103/2 57/102/2 65/110/2
f 58/104/4 59/136/4 67/113/4
