# Blender v2.80 (sub 41) OBJ File: 'bomb.blend'
# www.blender.org
o Cube
v -0.029742 0.591023 0.052999
v 0.029742 0.591023 0.052999
v -0.178743 -0.871145 0.218213
v 0.178743 -0.871145 0.218213
v -0.300000 0.100000 0.300000
v -0.300000 -0.100000 0.300000
v 0.300000 -0.100000 0.300000
v 0.300000 0.100000 0.300000
v 0.012512 -1.107507 0.069123
v -0.012512 -1.107507 0.069123
v 0.164871 0.459868 0.176500
v -0.164871 0.459868 0.176500
v -0.095627 -0.989326 0.143668
v 0.095627 -0.989326 0.143668
v -0.000000 -0.871145 0.218213
v 0.000000 0.591023 0.052999
v 0.000000 -0.128713 0.300000
v -0.000000 -0.328713 0.300000
v -0.000000 -1.107507 0.069123
v 0.000000 0.459868 0.176500
v -0.000000 -0.989326 0.143668
v 0.129357 0.554448 0.144042
v -0.129357 0.554448 0.144042
v 0.000000 0.554448 0.144042
v -0.089371 -0.871145 0.218213
v -0.006256 -1.107507 0.069123
v -0.014871 0.591023 0.052999
v -0.150000 -0.128713 0.300000
v -0.150000 -0.328713 0.300000
v -0.082436 0.459868 0.176500
v -0.047814 -0.989326 0.143668
v -0.064679 0.554448 0.144042
v 0.014871 0.591023 0.052999
v 0.150000 0.100000 0.300000
v 0.150000 -0.100000 0.300000
v 0.082436 0.459868 0.176500
v 0.047814 -0.989326 0.143668
v 0.089371 -0.871145 0.218213
v 0.006256 -1.107507 0.069123
v 0.064679 0.554448 0.144042
v 0.178743 -0.871145 0.128842
v -0.029742 0.591023 0.026500
v -0.178743 -0.871145 0.128842
v 0.029742 0.591023 0.026500
v 0.300000 -0.324799 0.150000
v 0.300000 -0.124799 0.150000
v -0.300000 0.100000 0.150000
v -0.300000 -0.100000 0.150000
v 0.012512 -1.107507 0.054297
v -0.012512 -1.107507 0.054297
v -0.164871 0.459868 0.088250
v 0.164871 0.459868 0.088250
v 0.095627 -0.989326 0.091569
v -0.095627 -0.989326 0.091569
v -0.000000 -1.107507 0.054297
v 0.000000 0.591023 0.026500
v -0.129357 0.554448 0.072021
v 0.129357 0.554448 0.072021
v -0.006256 -1.107507 0.054297
v -0.014871 0.591023 0.026500
v 0.014871 0.591023 0.026500
v 0.006256 -1.107507 0.054297
v -0.378315 0.647930 0.144042
v -0.413829 0.553351 0.176500
v -0.413829 0.553351 0.088250
v 0.082436 0.546189 0.428031
v 0.164871 0.546189 0.428031
v -0.082436 0.546189 0.428031
v -0.000000 0.546189 0.428031
v -0.000000 0.640769 0.395573
v 0.129357 0.640769 0.395573
v 0.064679 0.640769 0.395573
v -0.064679 0.640769 0.395573
v -0.378315 0.647930 0.072021
v 0.413829 0.553351 0.088250
v 0.378315 0.647930 0.072021
v -0.029742 0.591023 -0.052999
v 0.029742 0.591023 -0.052999
v -0.178743 -0.871145 -0.218213
v 0.178743 -0.871145 -0.218213
v 0.178743 -0.871145 0.000000
v -0.029742 0.591023 0.000000
v -0.178743 -0.871145 0.000000
v 0.029742 0.591023 0.000000
v -0.300000 0.100000 -0.300000
v -0.300000 -0.100000 -0.300000
v 0.300000 -0.100000 -0.300000
v 0.300000 0.100000 -0.300000
v 0.300000 -0.124799 0.000000
v 0.300000 -0.324799 0.000000
v -0.300000 -0.100000 0.000000
v -0.300000 0.100000 0.000000
v 0.012512 -1.107507 0.000000
v 0.012512 -1.107507 -0.069123
v -0.012512 -1.107507 -0.069123
v -0.012512 -1.107507 0.000000
v 0.164871 0.459868 -0.176500
v -0.164871 0.459868 0.000000
v -0.164871 0.459868 -0.176500
v 0.164871 0.459868 0.000000
v -0.095627 -0.989326 0.000000
v -0.095627 -0.989326 -0.143668
v 0.095627 -0.989326 -0.143668
v 0.095627 -0.989326 0.000000
v -0.000000 -0.871145 -0.218213
v 0.000000 0.591023 -0.052999
v 0.000000 0.591023 0.000000
v 0.000000 -0.128713 -0.300000
v -0.000000 -0.328713 -0.300000
v -0.000000 -1.107507 -0.069123
v -0.000000 -1.107507 0.000000
v 0.000000 0.459868 -0.176500
v -0.000000 -0.989326 -0.143668
v 0.129357 0.554448 -0.144042
v -0.129357 0.554448 0.000000
v -0.129357 0.554448 -0.144042
v 0.129357 0.554448 0.000000
v 0.000000 0.554448 -0.144042
v -0.089371 -0.871145 -0.218213
v -0.006256 -1.107507 -0.069123
v -0.014871 0.591023 -0.052999
v -0.014871 0.591023 0.000000
v -0.150000 -0.128713 -0.300000
v -0.150000 -0.328713 -0.300000
v -0.006256 -1.107507 0.000000
v -0.082436 0.459868 -0.176500
v -0.047814 -0.989326 -0.143668
v -0.064679 0.554448 -0.144042
v 0.014871 0.591023 -0.052999
v 0.014871 0.591023 0.000000
v 0.150000 0.100000 -0.300000
v 0.150000 -0.100000 -0.300000
v 0.006256 -1.107507 0.000000
v 0.082436 0.459868 -0.176500
v 0.047814 -0.989326 -0.143668
v 0.089371 -0.871145 -0.218213
v 0.006256 -1.107507 -0.069123
v 0.064679 0.554448 -0.144042
v 0.178743 -0.871145 -0.128842
v -0.029742 0.591023 -0.026500
v -0.178743 -0.871145 -0.128842
v 0.029742 0.591023 -0.026500
v 0.300000 -0.324799 -0.150000
v 0.300000 -0.124799 -0.150000
v -0.300000 0.100000 -0.150000
v -0.300000 -0.100000 -0.150000
v 0.012512 -1.107507 -0.054297
v -0.012512 -1.107507 -0.054297
v -0.164871 0.459868 -0.088250
v 0.164871 0.459868 -0.088250
v 0.095627 -0.989326 -0.091569
v -0.095627 -0.989326 -0.091569
v -0.000000 -1.107507 -0.054297
v 0.000000 0.591023 -0.026500
v -0.129357 0.554448 -0.072021
v 0.129357 0.554448 -0.072021
v -0.006256 -1.107507 -0.054297
v -0.014871 0.591023 -0.026500
v 0.014871 0.591023 -0.026500
v 0.006256 -1.107507 -0.054297
v -0.378315 0.647930 -0.144042
v -0.413829 0.553351 -0.176500
v 0.378315 0.647930 0.000000
v 0.413829 0.553351 0.000000
v -0.413829 0.553351 -0.088250
v 0.082436 0.546189 -0.428031
v 0.164871 0.546189 -0.428031
v -0.082436 0.546189 -0.428031
v -0.000000 0.546189 -0.428031
v -0.000000 0.640769 -0.395573
v 0.129357 0.640769 -0.395573
v 0.064679 0.640769 -0.395573
v -0.064679 0.640769 -0.395573
v -0.378315 0.647930 -0.072021
v 0.413829 0.553351 -0.088250
v 0.378315 0.647930 -0.072021
vt 0.541667 0.187500
vt 0.625000 0.250000
vt 0.541667 0.250000
vt 0.562500 0.416667
vt 0.625000 0.500000
vt 0.562500 0.500000
vt 0.594284 0.937500
vt 0.625000 1.000000
vt 0.594284 1.000000
vt 0.375000 0.687500
vt 0.312500 0.750000
vt 0.312500 0.687500
vt 0.562500 0.500000
vt 0.625000 0.500000
vt 0.562500 0.500000
vt 0.458333 0.937500
vt 0.375000 1.000000
vt 0.375000 0.937500
vt 0.541667 0.937500
vt 0.458333 1.000000
vt 0.562500 0.291667
vt 0.625000 0.333333
vt 0.562500 0.333333
vt 0.625000 0.416667
vt 0.458333 0.187500
vt 0.416667 0.250000
vt 0.416667 0.187500
vt 0.458333 0.250000
vt 0.625000 0.562500
vt 0.562500 0.625000
vt 0.562500 0.562500
vt 0.625000 0.125000
vt 0.625000 0.187500
vt 0.625000 0.187500
vt 0.375000 0.937500
vt 0.375000 1.000000
vt 0.375000 0.937500
vt 0.416667 0.250000
vt 0.416667 0.187500
vt 0.625000 0.280716
vt 0.562500 0.280716
vt 0.583333 0.937500
vt 0.541667 1.000000
vt 0.375000 1.000000
vt 0.625000 0.125000
vt 0.625000 0.187500
vt 0.625000 0.500000
vt 0.500000 0.500000
vt 0.437500 0.500000
vt 0.437500 0.500000
vt 0.437500 0.280716
vt 0.500000 0.291667
vt 0.437500 0.291667
vt 0.500000 0.562500
vt 0.437500 0.625000
vt 0.437500 0.562500
vt 0.500000 0.333333
vt 0.437500 0.416667
vt 0.437500 0.333333
vt 0.500000 0.500000
vt 0.437500 0.500000
vt 0.250000 0.687500
vt 0.187500 0.750000
vt 0.187500 0.687500
vt 0.500000 0.416667
vt 0.437500 0.250000
vt 0.500000 0.280716
vt 0.625000 0.250000
vt 0.562500 0.250000
vt 0.405716 0.187500
vt 0.375000 0.250000
vt 0.375000 0.187500
vt 0.583333 1.000000
vt 0.500000 0.250000
vt 0.437500 0.291667
vt 0.437500 0.280716
vt 0.500000 0.625000
vt 0.500000 0.500000
vt 0.250000 0.750000
vt 0.375000 0.250000
vt 0.375000 0.280716
vt 0.375000 0.500000
vt 0.375000 0.416667
vt 0.125000 0.750000
vt 0.125000 0.687500
vt 0.375000 0.500000
vt 0.375000 0.500000
vt 0.375000 0.291667
vt 0.375000 0.333333
vt 0.375000 0.625000
vt 0.375000 0.562500
vt 0.625000 0.291667
vt 0.625000 0.280716
vt 0.625000 0.291667
vt 0.187500 0.625000
vt 0.125000 0.625000
vt 0.312500 0.625000
vt 0.250000 0.625000
vt 0.500000 0.280716
vt 0.500000 0.291667
vt 0.405716 0.125000
vt 0.375000 0.125000
vt 0.625000 0.250000
vt 0.375000 0.875000
vt 0.375000 0.875000
vt 0.541667 0.875000
vt 0.416667 0.125000
vt 0.375000 0.875000
vt 0.625000 0.250000
vt 0.541667 0.125000
vt 0.458333 0.125000
vt 0.458333 0.875000
vt 0.375000 0.625000
vt 0.594284 0.875000
vt 0.625000 0.937500
vt 0.405716 0.250000
vt 0.405716 0.187500
vt 0.562500 0.280716
vt 0.375000 0.280716
vt 0.375000 0.291667
vt 0.583333 0.875000
vt 0.594284 0.937500
vt 0.583333 0.937500
vt 0.594284 0.875000
vt 0.562500 0.291667
vt 0.583333 0.875000
vt 0.405716 0.250000
vt 0.583333 1.000000
vt 0.541667 0.187500
vt 0.625000 0.250000
vt 0.625000 0.187500
vt 0.562500 0.416667
vt 0.625000 0.500000
vt 0.625000 0.416667
vt 0.594284 0.937500
vt 0.625000 1.000000
vt 0.625000 0.937500
vt 0.312500 0.750000
vt 0.375000 0.687500
vt 0.312500 0.687500
vt 0.562500 0.500000
vt 0.625000 0.500000
vt 0.625000 0.500000
vt 0.375000 1.000000
vt 0.458333 0.937500
vt 0.375000 0.937500
vt 0.458333 1.000000
vt 0.541667 0.937500
vt 0.562500 0.291667
vt 0.625000 0.333333
vt 0.625000 0.291667
vt 0.562500 0.333333
vt 0.416667 0.250000
vt 0.458333 0.187500
vt 0.416667 0.187500
vt 0.458333 0.250000
vt 0.625000 0.562500
vt 0.562500 0.562500
vt 0.625000 0.187500
vt 0.625000 0.187500
vt 0.375000 0.937500
vt 0.375000 1.000000
vt 0.375000 1.000000
vt 0.416667 0.250000
vt 0.625000 0.280716
vt 0.562500 0.280716
vt 0.541667 1.000000
vt 0.583333 0.937500
vt 0.562500 0.500000
vt 0.437500 0.500000
vt 0.500000 0.500000
vt 0.437500 0.500000
vt 0.437500 0.280716
vt 0.500000 0.291667
vt 0.500000 0.280716
vt 0.500000 0.562500
vt 0.437500 0.562500
vt 0.437500 0.416667
vt 0.500000 0.333333
vt 0.437500 0.333333
vt 0.437500 0.291667
vt 0.437500 0.500000
vt 0.500000 0.500000
vt 0.187500 0.750000
vt 0.250000 0.687500
vt 0.187500 0.687500
vt 0.500000 0.416667
vt 0.437500 0.250000
vt 0.500000 0.250000
vt 0.625000 0.250000
vt 0.562500 0.250000
vt 0.375000 0.250000
vt 0.405716 0.187500
vt 0.375000 0.187500
vt 0.594284 1.000000
vt 0.437500 0.291667
vt 0.562500 0.500000
vt 0.250000 0.750000
vt 0.375000 0.250000
vt 0.375000 0.500000
vt 0.375000 0.416667
vt 0.125000 0.750000
vt 0.125000 0.687500
vt 0.375000 0.500000
vt 0.375000 0.500000
vt 0.375000 0.291667
vt 0.375000 0.333333
vt 0.375000 0.562500
vt 0.625000 0.291667
vt 0.500000 0.500000
vt 0.500000 0.280716
vt 0.625000 0.250000
vt 0.375000 0.937500
vt 0.625000 0.250000
vt 0.625000 0.875000
vt 0.405716 0.250000
vt 0.416667 0.187500
vt 0.405716 0.187500
vt 0.500000 0.291667
vt 0.562500 0.280716
vt 0.375000 0.280716
vt 0.437500 0.280716
vt 0.594284 0.937500
vt 0.562500 0.291667
vt 0.375000 0.280716
vt 0.405716 0.250000
vt 0.583333 1.000000
vt 0.583333 1.000000
vt 0.375000 0.750000
vt 0.625000 0.625000
vt 0.625000 0.125000
vt 0.594284 1.000000
vt 0.541667 0.250000
vt 0.375000 0.750000
vt 0.625000 0.280716
vt 0.375000 0.291667
vt 0.583333 0.937500
vt 0.594284 1.000000
vn -0.9879 -0.1553 0.0000
vn 0.0000 -0.1491 0.9888
vn 0.3447 0.9387 -0.0000
vn 0.0000 1.0000 0.0000
vn 0.0000 -0.5335 0.8458
vn 0.9762 -0.2167 0.0000
vn 1.0000 0.0000 0.0000
vn 0.2589 0.1698 0.9509
vn 0.0000 0.0000 1.0000
vn -0.9362 0.3515 0.0000
vn -1.0000 0.0000 0.0000
vn 0.0000 -1.0000 0.0000
vn -0.8180 -0.5753 0.0000
vn 0.8180 -0.5753 0.0000
vn -0.3515 -0.9362 -0.0000
vn 0.0000 0.3246 0.9459
vn 0.9410 0.1878 -0.2814
vn 0.1795 -0.1177 0.9767
vn 0.0000 0.9279 0.3728
vn -0.3447 0.9387 0.0000
vn 0.9362 0.3515 0.0000
vn -0.9846 -0.1654 0.0568
vn 0.0000 0.2054 0.9787
vn 0.0000 -0.1055 0.9944
vn 0.1075 0.2864 0.9521
vn 0.9743 0.2252 0.0000
vn 0.0000 -0.9459 0.3246
vn -0.3515 0.9362 0.0000
vn 0.0000 0.9459 -0.3246
vn -0.0558 -0.1485 -0.9873
vn -0.9846 0.1654 -0.0568
vn 0.3515 -0.9362 0.0000
vn -0.0558 0.1485 0.9873
vn 0.3515 0.9362 0.0000
vn 0.9423 0.3166 -0.1086
vn -0.2061 -0.1352 -0.9691
vn 0.0000 -0.5335 -0.8458
vn 0.0000 0.3246 -0.9459
vn -0.0000 0.0000 -1.0000
vn 0.9410 0.1878 0.2814
vn 0.1795 -0.1177 -0.9767
vn 0.0000 0.9279 -0.3728
vn -0.9846 -0.1654 -0.0568
vn 0.0000 0.2054 -0.9787
vn 0.0000 -0.1491 -0.9888
vn 0.0000 -0.1055 -0.9944
vn 0.1075 0.2864 -0.9521
vn 0.0000 -0.9459 -0.3246
vn 0.0000 0.9459 0.3246
vn -0.0558 -0.1485 0.9873
vn -0.9846 0.1654 0.0568
vn -0.0558 0.1485 -0.9873
vn 0.9423 0.3166 0.1086
vn -0.2061 -0.1352 0.9691
vn 0.9477 -0.1772 0.2655
vn -0.2988 0.1960 0.9340
vn 0.9477 -0.1772 -0.2655
vn 0.2589 0.1698 -0.9509
vn -0.2988 0.1960 -0.9340
s off
f 48/1/1 3/2/1 6/3/1
f 29/4/2 3/5/2 25/6/2
f 58/7/3 2/8/3 22/9/3
f 42/10/4 27/11/4 60/12/4
f 31/13/5 10/14/5 26/15/5
f 45/16/6 4/17/6 41/18/6
f 46/19/7 7/20/7 45/16/7
f 30/21/8 5/22/8 28/23/8
f 28/23/9 6/24/9 29/4/9
f 47/25/10 12/26/10 51/27/10
f 48/1/11 5/28/11 47/25/11
f 50/29/12 125/30/12 59/31/12
f 101/32/13 50/33/13 54/34/13
f 53/35/14 9/36/14 49/37/14
f 51/27/15 64/38/15 65/39/15
f 23/40/16 30/21/16 32/41/16
f 52/42/17 8/43/17 46/19/17
f 41/18/14 14/44/14 53/35/14
f 83/45/13 54/34/13 43/46/13
f 25/6/5 13/47/5 31/13/5
f 15/48/5 37/49/5 38/50/5
f 40/51/16 20/52/16 36/53/16
f 55/54/12 133/55/12 62/56/12
f 17/57/9 35/58/9 34/59/9
f 20/52/16 34/59/16 36/53/16
f 21/60/5 39/61/5 37/49/5
f 56/62/4 33/63/4 61/64/4
f 18/65/18 38/50/18 35/58/18
f 33/66/19 24/67/19 40/51/19
f 1/68/19 32/41/19 27/69/19
f 57/70/20 1/71/20 42/72/20
f 52/42/21 22/9/21 11/73/21
f 27/69/19 24/67/19 16/74/19
f 15/48/5 31/13/5 21/60/5
f 40/51/22 66/75/22 72/76/22
f 59/31/12 111/77/12 55/54/12
f 28/23/9 18/65/9 17/57/9
f 30/21/23 17/57/23 20/52/23
f 21/60/5 26/15/5 19/78/5
f 60/12/4 16/79/4 56/62/4
f 18/65/2 25/6/2 15/48/2
f 2/80/19 40/51/19 22/81/19
f 35/58/24 4/82/24 7/83/24
f 61/64/4 2/84/4 44/85/4
f 37/49/5 9/86/5 14/87/5
f 11/88/16 34/59/16 8/89/16
f 34/59/9 7/83/9 8/89/9
f 62/56/12 93/90/12 49/91/12
f 12/92/25 63/93/25 64/94/25
f 38/50/5 14/87/5 4/82/5
f 39/61/12 49/91/12 9/86/12
f 130/95/4 44/85/4 84/96/4
f 122/97/4 56/62/4 107/98/4
f 26/15/12 55/54/12 19/78/12
f 20/52/7 70/99/7 69/100/7
f 115/101/20 42/72/20 82/102/20
f 107/98/4 61/64/4 130/95/4
f 19/78/12 62/56/12 39/61/12
f 43/46/13 13/103/13 3/2/13
f 81/104/14 53/35/14 104/105/14
f 89/106/26 52/42/26 46/19/26
f 98/107/10 57/70/10 115/101/10
f 104/105/14 49/37/14 93/108/14
f 54/34/13 10/109/13 13/103/13
f 10/14/12 59/31/12 26/15/12
f 91/110/11 47/25/11 92/111/11
f 92/111/10 51/27/10 98/107/10
f 89/106/7 45/16/7 90/112/7
f 90/112/6 41/18/6 81/104/6
f 82/113/4 60/12/4 122/97/4
f 117/114/3 44/115/3 58/7/3
f 91/110/1 43/46/1 48/1/1
f 65/39/10 63/116/10 74/117/10
f 73/118/16 69/100/16 70/99/16
f 71/119/16 66/75/16 67/120/16
f 164/121/21 76/122/21 75/123/21
f 11/88/27 66/75/27 36/53/27
f 58/7/28 163/124/28 117/114/28
f 20/52/27 68/125/27 30/21/27
f 40/51/29 71/119/29 22/81/29
f 51/27/30 74/117/30 57/70/30
f 32/41/29 70/99/29 24/67/29
f 30/21/31 73/118/31 32/41/31
f 100/126/32 75/123/32 52/42/32
f 52/42/33 76/122/33 58/7/33
f 57/70/34 63/116/34 23/127/34
f 22/9/35 67/128/35 11/73/35
f 146/129/1 79/130/1 141/131/1
f 124/132/36 79/133/36 86/134/36
f 156/135/3 78/136/3 142/137/3
f 121/138/4 140/139/4 158/140/4
f 127/141/37 95/142/37 102/143/37
f 80/144/6 143/145/6 139/146/6
f 87/147/7 144/148/7 143/145/7
f 126/149/38 85/150/38 99/151/38
f 123/152/39 86/134/39 85/150/39
f 99/153/10 145/154/10 149/155/10
f 85/156/11 146/129/11 145/154/11
f 125/30/12 148/157/12 157/158/12
f 148/159/13 101/32/13 152/160/13
f 151/161/14 94/162/14 103/163/14
f 149/155/15 162/164/15 99/153/15
f 126/149/38 116/165/38 128/166/38
f 88/167/40 150/168/40 144/148/40
f 139/146/14 103/163/14 80/144/14
f 152/160/13 83/45/13 141/131/13
f 119/169/37 102/143/37 79/133/37
f 135/170/37 105/171/37 136/172/37
f 138/173/38 112/174/38 118/175/38
f 133/55/12 153/176/12 160/177/12
f 132/178/39 108/179/39 131/180/39
f 131/180/38 112/174/38 134/181/38
f 137/182/37 113/183/37 135/170/37
f 129/184/4 154/185/4 159/186/4
f 136/172/41 109/187/41 132/178/41
f 129/188/42 118/175/42 106/189/42
f 128/166/42 77/190/42 121/191/42
f 77/192/20 155/193/20 140/194/20
f 150/168/21 114/195/21 156/135/21
f 118/175/42 121/191/42 106/189/42
f 105/171/37 127/141/37 119/169/37
f 138/173/43 166/196/43 134/181/43
f 111/77/12 157/158/12 153/176/12
f 109/187/39 123/152/39 108/179/39
f 108/179/44 126/149/44 112/174/44
f 113/183/37 120/197/37 127/141/37
f 106/198/4 158/140/4 154/185/4
f 109/187/45 119/169/45 124/132/45
f 78/199/42 138/173/42 129/188/42
f 80/200/46 132/178/46 87/201/46
f 78/202/4 159/186/4 142/203/4
f 94/204/37 135/170/37 103/205/37
f 97/206/38 131/180/38 134/181/38
f 87/201/39 131/180/39 88/207/39
f 93/90/12 160/177/12 147/208/12
f 162/209/47 116/165/47 99/151/47
f 103/205/37 136/172/37 80/200/37
f 147/208/12 137/182/12 94/204/12
f 142/203/4 130/95/4 84/96/4
f 154/185/4 122/97/4 107/98/4
f 153/176/12 120/197/12 110/210/12
f 112/174/7 170/211/7 118/175/7
f 140/194/20 115/101/20 82/102/20
f 159/186/4 107/98/4 130/95/4
f 160/177/12 110/210/12 137/182/12
f 102/212/13 141/131/13 79/130/13
f 81/104/14 151/161/14 139/146/14
f 89/106/26 150/168/26 100/126/26
f 155/193/10 98/107/10 115/101/10
f 104/105/14 147/213/14 151/161/14
f 95/214/13 152/160/13 102/212/13
f 157/158/12 95/142/12 120/197/12
f 145/154/11 91/110/11 92/111/11
f 149/155/10 92/111/10 98/107/10
f 143/145/7 89/106/7 90/112/7
f 139/146/6 90/112/6 81/104/6
f 158/140/4 82/113/4 122/97/4
f 117/114/3 142/137/3 84/215/3
f 91/110/1 141/131/1 83/45/1
f 161/216/10 165/217/10 174/218/10
f 169/219/38 173/220/38 170/211/38
f 171/221/38 166/196/38 172/222/38
f 164/121/21 176/223/21 163/124/21
f 166/196/48 97/206/48 134/181/48
f 163/124/28 156/135/28 117/114/28
f 168/224/48 112/174/48 126/149/48
f 171/221/49 138/173/49 114/225/49
f 174/218/50 149/155/50 155/193/50
f 170/211/49 128/166/49 118/175/49
f 173/220/51 126/149/51 128/166/51
f 150/168/32 164/121/32 100/126/32
f 176/223/52 150/168/52 156/135/52
f 161/216/34 155/193/34 116/226/34
f 167/227/53 114/195/53 97/228/53
f 48/1/1 43/46/1 3/2/1
f 29/4/54 6/24/54 3/5/54
f 58/7/3 44/115/3 2/8/3
f 42/10/4 1/229/4 27/11/4
f 31/13/5 13/47/5 10/14/5
f 45/16/55 7/20/55 4/17/55
f 46/19/7 8/43/7 7/20/7
f 30/21/16 12/92/16 5/22/16
f 28/23/9 5/22/9 6/24/9
f 47/25/10 5/28/10 12/26/10
f 48/1/11 6/3/11 5/28/11
f 50/29/12 96/230/12 125/30/12
f 101/32/13 96/231/13 50/33/13
f 53/35/14 14/44/14 9/36/14
f 51/27/15 12/26/15 64/38/15
f 23/40/16 12/92/16 30/21/16
f 52/42/21 11/73/21 8/43/21
f 41/18/14 4/17/14 14/44/14
f 83/45/13 101/32/13 54/34/13
f 25/6/5 3/5/5 13/47/5
f 15/48/5 21/60/5 37/49/5
f 40/51/16 24/67/16 20/52/16
f 55/54/12 111/77/12 133/55/12
f 17/57/9 18/65/9 35/58/9
f 20/52/56 17/57/56 34/59/56
f 21/60/5 19/78/5 39/61/5
f 56/62/4 16/79/4 33/63/4
f 18/65/2 15/48/2 38/50/2
f 33/66/19 16/74/19 24/67/19
f 1/68/19 23/40/19 32/41/19
f 57/70/20 23/127/20 1/71/20
f 52/42/21 58/7/21 22/9/21
f 27/69/19 32/41/19 24/67/19
f 15/48/5 25/6/5 31/13/5
f 40/51/22 36/53/22 66/75/22
f 59/31/12 125/30/12 111/77/12
f 28/23/9 29/4/9 18/65/9
f 30/21/23 28/23/23 17/57/23
f 21/60/5 31/13/5 26/15/5
f 60/12/4 27/11/4 16/79/4
f 18/65/2 29/4/2 25/6/2
f 2/80/19 33/66/19 40/51/19
f 35/58/24 38/50/24 4/82/24
f 61/64/4 33/63/4 2/84/4
f 37/49/5 39/61/5 9/86/5
f 11/88/16 36/53/16 34/59/16
f 34/59/9 35/58/9 7/83/9
f 62/56/12 133/55/12 93/90/12
f 12/92/25 23/40/25 63/93/25
f 38/50/5 37/49/5 14/87/5
f 39/61/12 62/56/12 49/91/12
f 130/95/4 61/64/4 44/85/4
f 122/97/4 60/12/4 56/62/4
f 26/15/12 59/31/12 55/54/12
f 20/52/7 24/67/7 70/99/7
f 115/101/20 57/70/20 42/72/20
f 107/98/4 56/62/4 61/64/4
f 19/78/12 55/54/12 62/56/12
f 43/46/13 54/34/13 13/103/13
f 81/104/14 41/18/14 53/35/14
f 89/106/26 100/126/26 52/42/26
f 98/107/10 51/27/10 57/70/10
f 104/105/14 53/35/14 49/37/14
f 54/34/13 50/33/13 10/109/13
f 10/14/12 50/29/12 59/31/12
f 91/110/11 48/1/11 47/25/11
f 92/111/10 47/25/10 51/27/10
f 89/106/7 46/19/7 45/16/7
f 90/112/6 45/16/6 41/18/6
f 82/113/4 42/10/4 60/12/4
f 117/114/3 84/215/3 44/115/3
f 91/110/1 83/45/1 43/46/1
f 65/39/10 64/38/10 63/116/10
f 73/118/16 68/125/16 69/100/16
f 71/119/16 72/76/16 66/75/16
f 164/121/21 163/124/21 76/122/21
f 11/88/27 67/120/27 66/75/27
f 58/7/28 76/122/28 163/124/28
f 20/52/27 69/100/27 68/125/27
f 40/51/29 72/76/29 71/119/29
f 51/27/30 65/39/30 74/117/30
f 32/41/29 73/118/29 70/99/29
f 30/21/31 68/125/31 73/118/31
f 100/126/32 164/121/32 75/123/32
f 52/42/33 75/123/33 76/122/33
f 57/70/34 74/117/34 63/116/34
f 22/9/35 71/232/35 67/128/35
f 146/129/1 86/233/1 79/130/1
f 124/132/45 119/169/45 79/133/45
f 156/135/3 114/195/3 78/136/3
f 121/138/4 77/234/4 140/139/4
f 127/141/37 120/197/37 95/142/37
f 80/144/57 87/147/57 143/145/57
f 87/147/7 88/167/7 144/148/7
f 126/149/58 123/152/58 85/150/58
f 123/152/39 124/132/39 86/134/39
f 99/153/10 85/156/10 145/154/10
f 85/156/11 86/233/11 146/129/11
f 125/30/12 96/230/12 148/157/12
f 148/159/13 96/231/13 101/32/13
f 151/161/14 147/213/14 94/162/14
f 149/155/15 165/217/15 162/164/15
f 126/149/38 99/151/38 116/165/38
f 88/167/21 97/228/21 150/168/21
f 139/146/14 151/161/14 103/163/14
f 152/160/13 101/32/13 83/45/13
f 119/169/37 127/141/37 102/143/37
f 135/170/37 113/183/37 105/171/37
f 138/173/38 134/181/38 112/174/38
f 133/55/12 111/77/12 153/176/12
f 132/178/39 109/187/39 108/179/39
f 131/180/59 108/179/59 112/174/59
f 137/182/37 110/210/37 113/183/37
f 129/184/4 106/198/4 154/185/4
f 136/172/45 105/171/45 109/187/45
f 129/188/42 138/173/42 118/175/42
f 128/166/42 116/165/42 77/190/42
f 77/192/20 116/226/20 155/193/20
f 150/168/21 97/228/21 114/195/21
f 118/175/42 128/166/42 121/191/42
f 105/171/37 113/183/37 127/141/37
f 138/173/43 172/222/43 166/196/43
f 111/77/12 125/30/12 157/158/12
f 109/187/39 124/132/39 123/152/39
f 108/179/44 123/152/44 126/149/44
f 113/183/37 110/210/37 120/197/37
f 106/198/4 121/138/4 158/140/4
f 109/187/45 105/171/45 119/169/45
f 78/199/42 114/225/42 138/173/42
f 80/200/46 136/172/46 132/178/46
f 78/202/4 129/184/4 159/186/4
f 94/204/37 137/182/37 135/170/37
f 97/206/38 88/207/38 131/180/38
f 87/201/39 132/178/39 131/180/39
f 93/90/12 133/55/12 160/177/12
f 162/209/47 161/235/47 116/165/47
f 103/205/37 135/170/37 136/172/37
f 147/208/12 160/177/12 137/182/12
f 142/203/4 159/186/4 130/95/4
f 154/185/4 158/140/4 122/97/4
f 153/176/12 157/158/12 120/197/12
f 112/174/7 169/219/7 170/211/7
f 140/194/20 155/193/20 115/101/20
f 159/186/4 154/185/4 107/98/4
f 160/177/12 153/176/12 110/210/12
f 102/212/13 152/160/13 141/131/13
f 81/104/14 104/105/14 151/161/14
f 89/106/26 144/148/26 150/168/26
f 155/193/10 149/155/10 98/107/10
f 104/105/14 93/108/14 147/213/14
f 95/214/13 148/159/13 152/160/13
f 157/158/12 148/157/12 95/142/12
f 145/154/11 146/129/11 91/110/11
f 149/155/10 145/154/10 92/111/10
f 143/145/7 144/148/7 89/106/7
f 139/146/6 143/145/6 90/112/6
f 158/140/4 140/139/4 82/113/4
f 117/114/3 156/135/3 142/137/3
f 91/110/1 146/129/1 141/131/1
f 161/216/10 162/164/10 165/217/10
f 169/219/38 168/224/38 173/220/38
f 171/221/38 167/236/38 166/196/38
f 164/121/21 175/237/21 176/223/21
f 166/196/48 167/236/48 97/206/48
f 163/124/28 176/223/28 156/135/28
f 168/224/48 169/219/48 112/174/48
f 171/221/49 172/222/49 138/173/49
f 174/218/50 165/217/50 149/155/50
f 170/211/49 173/220/49 128/166/49
f 173/220/51 168/224/51 126/149/51
f 150/168/32 175/237/32 164/121/32
f 176/223/52 175/237/52 150/168/52
f 161/216/34 174/218/34 155/193/34
f 167/227/53 171/238/53 114/195/53
